<?xml version="1.0" encoding="UTF-8" standalone="no"?>
<svg
   xmlns:dc="http://purl.org/dc/elements/1.1/"
   xmlns:cc="http://creativecommons.org/ns#"
   xmlns:rdf="http://www.w3.org/1999/02/22-rdf-syntax-ns#"
   xmlns:svg="http://www.w3.org/2000/svg"
   xmlns="http://www.w3.org/2000/svg"
   xmlns:sodipodi="http://sodipodi.sourceforge.net/DTD/sodipodi-0.dtd"
   xmlns:inkscape="http://www.inkscape.org/namespaces/inkscape"
   width="512"
   height="512"
   viewBox="0 0 135.46666 135.46667"
   version="1.1"
   id="svg8"
   inkscape:version="1.0.2 (e86c870879, 2021-01-15, custom)"
   sodipodi:docname="base.svg"
   inkscape:export-filename="C:\Users\Syple\Desktop\時針.png"
   inkscape:export-xdpi="96"
   inkscape:export-ydpi="96">
  <defs
     id="defs2" />
  <sodipodi:namedview
     id="base"
     pagecolor="#ffffff"
     bordercolor="#666666"
     borderopacity="1.0"
     inkscape:pageopacity="0.0"
     inkscape:pageshadow="2"
     inkscape:zoom="0.98994949"
     inkscape:cx="265.81058"
     inkscape:cy="276.0537"
     inkscape:document-units="mm"
     inkscape:current-layer="text1126"
     inkscape:document-rotation="0"
     showgrid="false"
     units="px"
     inkscape:window-width="1280"
     inkscape:window-height="961"
     inkscape:window-x="-8"
     inkscape:window-y="32"
     inkscape:window-maximized="1" />
  <metadata
     id="metadata5">
    <rdf:RDF>
      <cc:Work
         rdf:about="">
        <dc:format>image/svg+xml</dc:format>
        <dc:type
           rdf:resource="http://purl.org/dc/dcmitype/StillImage" />
        <dc:title />
      </cc:Work>
    </rdf:RDF>
  </metadata>
  <g
     inkscape:label="base"
     inkscape:groupmode="layer"
     id="layer1">
    <ellipse
       style="fill:#000000;fill-opacity:0;stroke:#000000;stroke-width:0.79375;stroke-miterlimit:4;stroke-dasharray:none"
       id="path833"
       cx="67.733337"
       cy="67.733337"
       rx="67.504715"
       ry="67.504707" />
    <g
       aria-label="12"
       id="text1082"
       style="font-size:10.5833px;line-height:1.25;font-family:Cica;-inkscape-font-specification:'Cica, Normal';stroke-width:0.264583" />
    <g
       aria-label="1"
       id="text1086"
       style="font-size:10.5833px;line-height:1.25;font-family:Cica;-inkscape-font-specification:'Cica, Normal';stroke-width:0.264583" />
    <g
       aria-label="2"
       id="text1090"
       style="font-size:10.5833px;line-height:1.25;font-family:Cica;-inkscape-font-specification:'Cica, Normal';stroke-width:0.264583" />
    <g
       aria-label="3"
       id="text1094"
       style="font-size:10.5833px;line-height:1.25;font-family:Cica;-inkscape-font-specification:'Cica, Normal';stroke-width:0.264583" />
    <g
       aria-label="4"
       id="text1098"
       style="font-size:10.5833px;line-height:1.25;font-family:Cica;-inkscape-font-specification:'Cica, Normal';stroke-width:0.264583" />
    <g
       aria-label="5"
       id="text1102"
       style="font-size:10.5833px;line-height:1.25;font-family:Cica;-inkscape-font-specification:'Cica, Normal';stroke-width:0.264583" />
    <g
       aria-label="6"
       id="text1106"
       style="font-size:10.5833px;line-height:1.25;font-family:Cica;-inkscape-font-specification:'Cica, Normal';stroke-width:0.264583" />
    <g
       aria-label="7"
       id="text1110"
       style="font-size:10.5833px;line-height:1.25;font-family:Cica;-inkscape-font-specification:'Cica, Normal';stroke-width:0.264583" />
    <g
       aria-label="8"
       id="text1114"
       style="font-size:10.5833px;line-height:1.25;font-family:Cica;-inkscape-font-specification:'Cica, Normal';stroke-width:0.264583" />
    <g
       aria-label="9"
       id="text1118"
       style="font-size:10.5833px;line-height:1.25;font-family:Cica;-inkscape-font-specification:'Cica, Normal';stroke-width:0.264583" />
    <g
       aria-label="10"
       id="text1122"
       style="font-size:10.5833px;line-height:1.25;font-family:Cica;-inkscape-font-specification:'Cica, Normal';stroke-width:0.264583" />
    <g
       aria-label="11"
       id="text1126"
       style="font-size:10.5833px;line-height:1.25;font-family:Cica;-inkscape-font-specification:'Cica, Normal';stroke-width:0.264583">
      <path
         id="path65"
         style="stroke-width:0.264583"
         d="M 67.501306,0.03255615 V 7.279659 a 60.854166,60.854166 0 0 1 0.728636,-0.0031 V 0.03255615 Z M 34.330722,8.9209024 33.699751,9.2847045 37.362061,15.62747 a 60.854166,60.854166 0 0 1 0.630452,-0.364319 z m 67.069808,0 -3.531569,6.1169396 a 60.854166,60.854166 0 0 1 0.633553,0.359667 L 102.0315,9.2847045 Z M 9.4169962,33.56746 9.0531941,34.19843 15.352551,37.835416 a 60.854166,60.854166 0 0 1 0.366386,-0.62942 z m 116.8972538,0 -5.90765,3.411161 a 60.854166,60.854166 0 0 1 0.36897,0.62787 l 5.90248,-3.408061 z M 0.16484782,67.369014 V 68.09765 H 7.2760416 a 60.854166,60.854166 0 0 1 0.00414,-0.669207 60.854166,60.854166 0 0 1 0.00103,-0.05943 z m 128.81487218,0 a 60.854166,60.854166 0 0 1 0.005,0.728636 h 6.58202 V 67.369014 Z M 15.014071,97.826585 9.0531941,101.26824 9.4169962,101.89921 15.373222,98.460138 A 60.854166,60.854166 0 0 1 15.014071,97.826585 Z M 121.11664,98.05758 a 60.854166,60.854166 0 0 1 -0.36174,0.632002 l 5.55935,3.209628 0.3638,-0.63097 z m -84.096678,22.37331 -3.320211,5.75107 0.630971,0.3638 3.317626,-5.74642 a 60.854166,60.854166 0 0 1 -0.628386,-0.36845 z m 61.825682,0.23306 a 60.854166,60.854166 0 0 1 -0.630968,0.3638 l 3.185854,5.51801 0.63097,-0.3638 z m -31.344338,8.31732 v 6.45284 h 0.728636 v -6.44974 a 60.854166,60.854166 0 0 1 -0.728636,-0.003 z" />
      <path
         style="stroke-width:0.264583"
         d="m 63.460907,14.76783 h 1.364253 v -4.650864 l -1.033525,1.178218 -0.475422,-0.589109 1.498612,-1.6846463 h 0.878496 V 14.76783 h 1.343583 v 0.733803 h -3.575997 z"
         id="path63" />
      <path
         style="stroke-width:0.264583"
         d="m 68.50451,14.922858 q 0,-0.165364 0.113688,-0.268716 0.237711,-0.268717 0.578774,-0.620115 0.341064,-0.361734 0.723468,-0.78548 0.299722,-0.320392 0.444416,-0.475421 0.155029,-0.165364 0.227376,-0.248046 0.08268,-0.09302 0.165364,-0.19637 0.227375,-0.279052 0.361733,-0.475422 0.144694,-0.19637 0.227376,-0.382404 0.155029,-0.341064 0.155029,-0.682127 0,-0.537433 -0.320393,-0.8371555 -0.320393,-0.3100576 -0.878497,-0.3100576 -0.775144,0 -1.746657,0.5787741 V 9.3314863 q 0.444416,-0.2067051 0.878496,-0.3203928 0.434081,-0.1033526 0.857826,-0.1033526 0.444416,0 0.837156,0.1240231 0.403075,0.1136878 0.692462,0.3720691 0.268716,0.2377108 0.423745,0.5684389 0.155029,0.330728 0.155029,0.744138 0,0.423746 -0.19637,0.857826 -0.09302,0.217041 -0.248046,0.423746 -0.144694,0.206705 -0.382404,0.485757 -0.124023,0.144693 -0.299723,0.341063 -0.165364,0.19637 -0.403075,0.444416 -0.165364,0.175699 -0.310057,0.320393 -0.134359,0.144693 -0.289387,0.299722 -0.155029,0.155029 -0.361734,0.361734 -0.19637,0.206705 -0.485757,0.516763 h 3.017894 v 0.733803 H 68.50451 Z"
         id="path61" />
      <path
         style="stroke-width:0.264583"
         d="m 93.662368,21.716839 h 1.364254 v -4.650864 l -1.033525,1.178218 -0.475422,-0.589109 1.498612,-1.684646 h 0.878496 v 5.746401 h 1.343583 v 0.733803 h -3.575998 z"
         id="path59" />
      <path
         style="stroke-width:0.264583"
         d="m 115.06315,41.382541 q 0,-0.165364 0.11369,-0.268717 0.23771,-0.268716 0.57877,-0.620115 0.34106,-0.361734 0.72347,-0.785479 0.29972,-0.320393 0.44441,-0.475422 0.15503,-0.165364 0.22738,-0.248046 0.0827,-0.09302 0.16536,-0.19637 0.22738,-0.279052 0.36174,-0.475421 0.14469,-0.19637 0.22737,-0.382405 0.15503,-0.341063 0.15503,-0.682126 0,-0.537434 -0.32039,-0.837156 -0.32039,-0.310058 -0.8785,-0.310058 -0.77514,0 -1.74665,0.578775 v -0.888832 q 0.44441,-0.206705 0.87849,-0.320393 0.43408,-0.103353 0.85783,-0.103353 0.44441,0 0.83715,0.124023 0.40308,0.113688 0.69247,0.37207 0.26871,0.23771 0.42374,0.568439 0.15503,0.330728 0.15503,0.744138 0,0.423745 -0.19637,0.857826 -0.093,0.21704 -0.24805,0.423745 -0.14469,0.206705 -0.3824,0.485757 -0.12402,0.144694 -0.29972,0.341063 -0.16537,0.19637 -0.40308,0.444416 -0.16536,0.1757 -0.31006,0.320393 -0.13435,0.144694 -0.28938,0.299723 -0.15503,0.155028 -0.36174,0.361733 -0.19637,0.206706 -0.48575,0.516763 h 3.01789 v 0.733803 h -3.93773 z"
         id="path57" />
      <path
         style="stroke-width:0.264583"
         d="m 125.08483,70.683181 q -0.20671,0 -0.43408,-0.02067 -0.22738,-0.02067 -0.46509,-0.06201 -0.19637,-0.031 -0.43408,-0.09302 -0.23771,-0.06201 -0.47542,-0.144693 v -0.888832 q 0.21704,0.113687 0.43408,0.206705 0.21704,0.09302 0.43408,0.155029 0.21704,0.05168 0.42374,0.08268 0.21704,0.031 0.43408,0.031 0.72347,0 1.10588,-0.330728 0.39274,-0.330728 0.39274,-0.919837 0,-0.578775 -0.38241,-0.909503 -0.3824,-0.330728 -1.05419,-0.330728 h -0.6718 v -0.723467 h 0.6718 q 0.60978,0 0.95084,-0.268717 0.33073,-0.258381 0.33073,-0.744138 0,-0.496093 -0.31006,-0.754474 -0.31006,-0.268716 -0.91984,-0.268716 -0.3514,0 -0.78548,0.08268 -0.41341,0.08268 -0.85782,0.268716 v -0.816485 q 0.52709,-0.134358 0.9405,-0.206705 0.38241,-0.06201 0.73381,-0.06201 0.45475,0 0.83715,0.113687 0.38241,0.113688 0.67179,0.351399 0.55811,0.465086 0.55811,1.260901 0,0.279052 -0.0827,0.506427 -0.0724,0.217041 -0.21704,0.39274 -0.28939,0.351399 -0.86817,0.496092 0.64079,0.175699 0.98185,0.599445 0.1757,0.227375 0.25839,0.506427 0.0827,0.268717 0.0827,0.578774 0,0.888832 -0.59945,1.405595 -0.28938,0.248046 -0.71313,0.382404 -0.42375,0.124023 -0.97151,0.124023 z"
         id="path55" />
      <path
         style="stroke-width:0.264583"
         d="m 95.828425,119.32623 q -0.186034,0 -0.43408,-0.0207 -0.237711,-0.0103 -0.454751,-0.0517 -0.217041,-0.031 -0.403075,-0.0827 -0.186035,-0.0517 -0.361734,-0.12402 v -0.88883 q 0.403075,0.21704 0.80615,0.32039 0.403075,0.11369 0.795814,0.11369 0.764809,0 1.147213,-0.3824 0.39274,-0.39274 0.39274,-1.07487 0,-0.38241 -0.113688,-0.65112 -0.103352,-0.26872 -0.289387,-0.44442 -0.186034,-0.1757 -0.475422,-0.27905 -0.279051,-0.10335 -0.682126,-0.10335 -0.330728,0 -0.661457,0.0723 -0.341063,0.0827 -0.640785,0.24805 v -3.2556 h 3.276275 v 0.7338 h -2.480461 v 1.59163 q 0.186035,-0.062 0.382405,-0.10335 0.165364,-0.031 0.382404,-0.031 0.516763,0 0.919838,0.16536 0.403074,0.16537 0.671791,0.43408 0.58911,0.58911 0.58911,1.60197 0,1.03352 -0.60978,1.62263 -0.299723,0.28939 -0.733803,0.44442 -0.434081,0.14469 -1.023191,0.14469 z"
         id="path49" />
      <path
         style="stroke-width:0.264583"
         d="m 40.583215,113.72308 h -3.100576 v -0.7338 h 4.082425 v 0.37207 l -2.315097,6.10813 h -0.919838 z"
         id="path43" />
      <path
         style="stroke-width:0.264583"
         d="m 37.803032,22.251377 h 1.364253 v -4.650864 l -1.033525,1.178219 -0.475422,-0.58911 1.498612,-1.684646 h 0.878496 v 5.746401 h 1.343583 v 0.733803 h -3.575997 z"
         id="path23" />
      <path
         style="stroke-width:0.264583"
         d="m 43.094681,22.251377 h 1.364254 v -4.650864 l -1.033526,1.178219 -0.475421,-0.58911 1.498612,-1.684646 h 0.878496 v 5.746401 h 1.343583 v 0.733803 h -3.575998 z"
         id="path1130" />
      <text
         xml:space="preserve"
         style="font-size:10.5833px;line-height:1.25;font-family:Cica;-inkscape-font-specification:'Cica, Normal';stroke-width:0.0700042"
         x="114.9259"
         y="99.424263"
         id="text117"><tspan
           sodipodi:role="line"
           id="tspan115"
           x="114.9259"
           y="99.424263"
           style="stroke-width:0.0700042">4</tspan></text>
      <text
         xml:space="preserve"
         style="font-size:10.5833px;line-height:1.25;font-family:Cica;-inkscape-font-specification:'Cica, Normal';stroke-width:0.0700042"
         x="65.213768"
         y="126.95303"
         id="text121"><tspan
           sodipodi:role="line"
           id="tspan119"
           x="65.213768"
           y="126.95303"
           style="stroke-width:0.0700042">6</tspan></text>
      <text
         xml:space="preserve"
         style="font-size:10.5833px;line-height:1.25;font-family:Cica;-inkscape-font-specification:'Cica, Normal';stroke-width:0.0700042"
         x="16.570709"
         y="98.355186"
         id="text125"><tspan
           sodipodi:role="line"
           id="tspan123"
           x="16.570709"
           y="98.355186"
           style="stroke-width:0.0700042">8</tspan></text>
      <text
         xml:space="preserve"
         style="font-size:10.5833px;line-height:1.25;font-family:Cica;-inkscape-font-specification:'Cica, Normal';stroke-width:0.0700042"
         x="8.0180864"
         y="70.826424"
         id="text129"><tspan
           sodipodi:role="line"
           x="8.0180864"
           y="70.826424"
           style="stroke-width:0.0700042"
           id="tspan131">9</tspan></text>
      <text
         xml:space="preserve"
         style="font-size:10.5833px;line-height:1.25;font-family:Cica;-inkscape-font-specification:'Cica, Normal';stroke-width:0.0700042"
         x="16.036167"
         y="43.297661"
         id="text137"><tspan
           sodipodi:role="line"
           id="tspan135"
           x="16.036167"
           y="43.297661"
           style="stroke-width:0.0700042">10</tspan></text>
    </g>
  </g>
</svg>
